# xmcd CD database file
#
# Track frame offsets:
#	183
#	12770
#	25635
#	36190
#	47838
#	59168
#	72133
#	85260
#	96775
#	109373
#	121468
#	133108
#	144120
#	155910
#	167885
#	177678
#	189970
#	201248
#	211858
#	221420
#	232743
#	242735
#
# Disc length: 3421 seconds
#
# Revision: 0
# Processed by: cddbd v1.5.2PL0 Copyright (c) Steve Scherf et al.
# Submitted via: CDex 1.51
#
DISCID=3c0d5b16
DTITLE=Jim Reeves - Jim Reeves CD 1 Sings Romantic Favourites (P) 1992
DYEAR=1992
DGENRE=Country
TTITLE0=I Love You Because
TTITLE1=Distant Drums
TTITLE2=He'll Have To Go
TTITLE3=Welcome To My World
TTITLE4=My Happiness
TTITLE5=Have I Told You Lately That I Love You-
TTITLE6=You'll Never Know
TTITLE7=Carolina Moon
TTITLE8=I Can't Stop Loving You
TTITLE9=Maria Elena
TTITLE10=You Belong To Me
TTITLE11=Moonlight And Roses (Bring Mem'ries Of You)
TTITLE12=Have You Ever Been Lonely- (Have You Ever Been Blue-)
TTITLE13=Mona Lisa
TTITLE14=Charmaine
TTITLE15=Blue Skies
TTITLE16=Moon River
TTITLE17=Memories Are Made Of This
TTITLE18=Ramona
TTITLE19=Mexicali Rose
TTITLE20=A Fool Such As I
TTITLE21=Auf Wiederseh'n Sweetheart
EXTD=YEAR: 1992
EXTT0=
EXTT1=
EXTT2=
EXTT3=
EXTT4=
EXTT5=
EXTT6=
EXTT7=
EXTT8=
EXTT9=
EXTT10=
EXTT11=
EXTT12=
EXTT13=
EXTT14=
EXTT15=
EXTT16=
EXTT17=
EXTT18=
EXTT19=
EXTT20=
EXTT21=
PLAYORDER=
